<?xml version="1.0" encoding="UTF-8"?>
<svg id="a" xmlns="http://www.w3.org/2000/svg" viewBox="0 0 64 64">
  <defs>
    <style>
      .cls-1 {
        fill: #d17dfe;
      }

      .cls-1, .cls-2, .cls-3 {
        stroke-width: 0px;
      }

      .cls-2 {
        fill: #481a54;
      }

      .cls-3 {
        fill: #fff;
      }
    </style>
  </defs>
  <path class="cls-2" d="M55.73,21.67c.09-.76.19-4.83-2.56-7.96-1.04-1.23-2.37-2.09-3.98-2.65v-3.7c0-1.04-.85-1.9-1.9-1.9h-7.58c-1.04,0-1.9.85-1.9,1.9v3.89c-1.61.66-2.94,1.52-4.08,2.75-2.75,3.03-2.65,6.92-2.56,7.68v1.8H10.13c-1.04,0-1.9.85-1.9,1.9v31.28c0,1.04.85,1.9,1.9,1.9h30.33c1.04,0,1.9-.85,1.9-1.9h1.04c4.93,0,8.44-1.23,10.52-3.51,1.9-2.09,1.8-4.46,1.8-5.12v-26.35Z"/>
  <path class="cls-1" d="M51.94,48.4s.09,1.14-.85,2.27c-1.23,1.42-3.89,2.18-7.58,2.18h-1.04v-8.53h9.48v4.08Z"/>
  <path class="cls-1" d="M41.6,14.18v-4.93h3.79v4.83c2.18.19,3.89.95,4.93,2.09,1.9,2.09,1.71,5.12,1.61,5.21v2.09h-17.06v-2.09s-.19-2.84,1.71-4.93c1.14-1.23,2.75-1.99,5.02-2.27Z"/>
  <path class="cls-1" d="M51.94,27.26h-9.57v13.27h9.57v-13.27Z"/>
  <path class="cls-1" d="M38.57,44.32v-17.06H12.03v27.49h26.54v-10.43Z"/>
  <path class="cls-2" d="M17.72,40.53c-1.04,0-1.9.85-1.9,1.9v6.64c0,1.04.85,1.9,1.9,1.9s1.9-.85,1.9-1.9v-6.64c0-1.04-.76-1.9-1.9-1.9Z"/>
  <path class="cls-2" d="M33.83,50.77c.57-.28,1.04-.95,1.04-1.71v-6.64c0-1.04-.76-1.8-1.8-1.9h-.19c-.85,0-1.52.57-1.8,1.33-.09.19-.09.38-.09.57v6.64c0,.47.19.95.57,1.33s.85.57,1.33.57c.38,0,.66-.09.95-.19Z"/>
  <path class="cls-2" d="M25.3,40.53c-1.04,0-1.9.85-1.9,1.9v6.64c0,1.04.85,1.9,1.9,1.9s1.9-.85,1.9-1.9v-6.64c0-1.04-.76-1.9-1.9-1.9Z"/>
  <path class="cls-3" d="M30.99,36.74h.09c1.04-.09,1.8-.85,1.8-1.9s-.76-1.8-1.8-1.9h-3.89c0-1.04-.85-1.9-1.9-1.9s-1.9.85-1.9,1.9h-3.79c-1.04,0-1.9.85-1.9,1.9s.85,1.9,1.9,1.9h11.37Z"/>
</svg>