<?xml version="1.0" encoding="UTF-8"?>
<svg id="a" xmlns="http://www.w3.org/2000/svg" viewBox="0 0 64 64">
  <defs>
    <style>
      .cls-1 {
        fill: #d17dfe;
      }

      .cls-1, .cls-2 {
        stroke-width: 0px;
      }

      .cls-2 {
        fill: #481a54;
      }
    </style>
  </defs>
  <path class="cls-2" d="M57.73,24.5l-23.9-10.52c-.49-.2-1.08-.2-1.57,0l-23.8,10.52c-.69.3-1.18.98-1.18,1.77,0,.59.2,1.08.69,1.48v8.56l-2.56,4.33c-.59.89-.3,2.16.69,2.66.3.2.69.3.98.3.69,0,1.28-.3,1.67-.98l1.18-1.97,1.18,1.97c.39.59.98.98,1.67.98.39,0,.69-.1.98-.3.89-.59,1.28-1.77.69-2.66l-2.56-4.33v-6.69l4.23,1.87v10.33c0,.49.2.98.49,1.38.1.1,6.79,6.98,16.52,6.98,4.82,0,10.43-1.67,16.33-6.89.39-.39.69-.89.69-1.48v-10.43l7.57-3.34c.69-.3,1.18-.98,1.18-1.77s-.49-1.48-1.18-1.77Z"/>
  <path class="cls-1" d="M48.18,27.94l-15.15,6.69-15.05-6.69-3.93-1.67,18.98-8.36,18.98,8.36-3.84,1.67Z"/>
  <path class="cls-1" d="M46.22,40.93c-12.98,10.72-23.8,2.36-26.26.1v-7.87l12.3,5.41c.3.1.49.2.79.2s.49-.1.79-.2l12.3-5.41v7.77h.1Z"/>
</svg>