<?xml version="1.0" encoding="UTF-8"?>
<svg id="a" xmlns="http://www.w3.org/2000/svg" viewBox="0 0 64 64">
  <defs>
    <style>
      .cls-1 {
        fill: #d17dfe;
      }

      .cls-1, .cls-2, .cls-3 {
        stroke-width: 0px;
      }

      .cls-2 {
        fill: #481a54;
      }

      .cls-3 {
        fill: #fff;
      }
    </style>
  </defs>
  <path class="cls-2" d="M58.35,24.99c-.32-1.06-1.59-1.7-2.66-1.38l-7.86,2.66v-3.83c0-1.17-.96-2.13-2.13-2.13h-3.72c1.06-1.49,1.59-3.29,1.59-5.31,0-5.31-4.25-9.56-9.56-9.56s-5.74,1.38-7.44,3.51c-1.7-2.13-4.46-3.51-7.44-3.51-5.31,0-9.56,4.25-9.56,9.56s.64,3.83,1.59,5.31h-3.72c-1.17,0-2.13.96-2.13,2.13v19.13c0,1.17.96,2.13,2.13,2.13h9.78l-4.25,12.01c0,.21-.11.43-.11.74,0,1.17.96,2.13,2.13,2.13.85,0,1.7-.53,2.02-1.38l4.78-13.49h9.78l4.78,13.49c.32.85,1.06,1.38,2.02,1.38.21,0,.53,0,.74-.11,1.06-.43,1.7-1.59,1.28-2.76l-4.25-12.01h9.78c1.17,0,2.13-.96,2.13-2.13v-3.83l7.86,2.66c.21,0,.42.11.64,0,1.17,0,2.13-.96,2.13-2.13v-12.75c0-.21,0-.43-.11-.64l-.21.11ZM34.02,9.69c2.98,0,5.31,2.34,5.31,5.31s-2.34,5.31-5.31,5.31-5.31-2.34-5.31-5.31,2.34-5.31,5.31-5.31ZM13.83,15c0-2.98,2.34-5.31,5.31-5.31s5.31,2.34,5.31,5.31-2.34,5.31-5.31,5.31-5.31-2.34-5.31-5.31ZM43.58,39.44H9.58v-14.88h34v14.88ZM54.21,35.4l-6.38-2.13v-2.66l6.38-2.13v6.91Z"/>
  <path class="cls-1" d="M43.58,39.44H9.58v-14.88h34v14.88Z"/>
  <path class="cls-3" d="M34.02,20.31c2.93,0,5.31-2.38,5.31-5.31s-2.38-5.31-5.31-5.31-5.31,2.38-5.31,5.31,2.38,5.31,5.31,5.31Z"/>
  <path class="cls-3" d="M19.14,20.31c2.93,0,5.31-2.38,5.31-5.31s-2.38-5.31-5.31-5.31-5.31,2.38-5.31,5.31,2.38,5.31,5.31,5.31Z"/>
  <path class="cls-3" d="M54.21,35.4l-6.38-2.13v-2.55l6.38-2.13v6.8Z"/>
</svg>