<?xml version="1.0" encoding="UTF-8"?>
<svg id="a" xmlns="http://www.w3.org/2000/svg" viewBox="0 0 64 64">
  <defs>
    <style>
      .cls-1 {
        fill: #d17dfe;
      }

      .cls-1, .cls-2, .cls-3 {
        stroke-width: 0px;
      }

      .cls-2 {
        fill: #481a54;
      }

      .cls-3 {
        fill: #fff;
      }
    </style>
  </defs>
  <path class="cls-2" d="M54.62,13.37c-5.35-5.35-13.95-5.35-19.3,0l-3.53,3.53-3.53-3.53c-5.25-4.97-13.47-4.97-18.72,0-5.35,5.16-5.64,13.85-.38,19.3l21.4,21.4c.38.38.86.57,1.34.57s.96-.19,1.34-.57l21.4-21.4c5.35-5.35,5.35-13.95,0-19.3Z"/>
  <path class="cls-1" d="M51.95,29.9l-1.43,1.43-3.82,3.82-14.81,14.81-14.81-14.81-3.82-3.82-1.43-1.43c-1.82-1.82-2.87-4.3-2.87-6.97,0-5.45,4.39-9.74,9.84-9.74,2.58,0,5.06,1.05,6.88,2.87l4.87,4.87c.76.76,1.91.76,2.67,0l4.87-4.87c3.82-3.63,9.74-3.63,13.47,0,3.92,3.73,4.11,9.94.38,13.85Z"/>
  <path class="cls-3" d="M36.95,32.1l-2.58,3.73-3.53-9.94c-.19-.38-.48-.76-.86-1.05-.96-.48-2.1-.19-2.58.67l-3.25,5.73h-10.89l3.82,3.82h8.12c.67,0,1.34-.38,1.62-.96l1.72-3.06,3.44,9.55c.19.67.86,1.15,1.53,1.24h.29c.57,0,1.15-.29,1.53-.76l4.2-5.92h7.16l3.82-3.82h-11.94c-.67,0-1.24.29-1.62.76Z"/>
</svg>