<?xml version="1.0" encoding="UTF-8"?>
<svg id="a" xmlns="http://www.w3.org/2000/svg" viewBox="0 0 64 64">
  <defs>
    <style>
      .cls-1 {
        fill: #d17dfe;
      }

      .cls-1, .cls-2, .cls-3 {
        stroke-width: 0px;
      }

      .cls-2 {
        fill: #481a54;
      }

      .cls-3 {
        fill: #fff;
      }
    </style>
  </defs>
  <path class="cls-2" d="M50.08,18.68h-4.76v-3.81c0-5.23-4.28-9.52-9.52-9.52-1.33,0-2.66.29-3.81.76-1.14-.48-2.47-.76-3.81-.76-5.23,0-9.52,4.28-9.52,9.52v3.81h-4.76c-1.05,0-1.9.86-1.9,1.9v36.16c0,1.05.86,1.9,1.9,1.9h36.16c1.05,0,1.9-.86,1.9-1.9V20.58c0-1.05-.86-1.9-1.9-1.9Z"/>
  <path class="cls-1" d="M48.18,22.48H15.82v32.36h32.36V22.48Z"/>
  <path class="cls-3" d="M35.81,9.16c3.14,0,5.71,2.57,5.71,5.71v3.81h-3.81v-3.81c0-2.19-.76-4.09-1.9-5.71Z"/>
  <path class="cls-3" d="M30.1,14.87c0-1.71.76-3.24,1.9-4.28,1.14,1.05,1.9,2.57,1.9,4.28v3.81h-3.81v-3.81Z"/>
  <path class="cls-3" d="M22.48,14.87c0-3.14,2.57-5.71,5.71-5.71-1.24,1.62-1.9,3.52-1.9,5.71v3.81h-3.81v-3.81Z"/>
  <path class="cls-3" d="M22.48,35.81h19.03c1.05,0,1.9-.86,1.9-1.9s-.86-1.9-1.9-1.9h-19.03c-1.05,0-1.9.86-1.9,1.9s.86,1.9,1.9,1.9Z"/>
  <path class="cls-3" d="M38.66,39.61h-13.32c-1.05,0-1.9.86-1.9,1.9s.86,1.9,1.9,1.9h13.32c1.05,0,1.9-.86,1.9-1.9s-.86-1.9-1.9-1.9Z"/>
</svg>