<svg xmlns="http://www.w3.org/2000/svg" xmlns:xlink="http://www.w3.org/1999/xlink" x="0px" y="0px" viewBox="0 0 100 100" style="enable-background:new 0 0 100 100;" xml:space="preserve"><style type="text/css">	.wdt-cus-text-fill-color-03-01{fill:none;stroke:url(#wdt-cus-icon-fill-color-gradient-03-01);stroke-width:0.9248;stroke-miterlimit:10;}	.wdt-cus-text-fill-color-03-02{fill:none;stroke:url(#wdt-cus-icon-fill-color-gradient-03-02);stroke-width:0.9248;stroke-miterlimit:10;}	.wdt-cus-text-fill-color-03-03{fill:none;stroke:url(#wdt-cus-icon-fill-color-gradient-03-03);stroke-width:0.9248;stroke-miterlimit:10;}	.wdt-cus-text-fill-color-03-04{fill:none;stroke:url(#wdt-cus-icon-fill-color-gradient-03-04);stroke-width:0.9248;stroke-miterlimit:10;}	.wdt-cus-text-fill-color-03-05{fill:none;stroke:url(#wdt-cus-icon-fill-color-gradient-03-05);stroke-width:0.9248;stroke-miterlimit:10;}	.wdt-cus-text-fill-color-03-06{fill:none;stroke:url(#wdt-cus-icon-fill-color-gradient-03-06);stroke-width:0.9248;stroke-miterlimit:10;}	.wdt-cus-text-fill-color-03-07{fill:none;stroke:url(#wdt-cus-icon-fill-color-gradient-03-07);stroke-width:0.9248;stroke-miterlimit:10;}	.wdt-cus-text-fill-color-03-08{fill:none;stroke:url(#wdt-cus-icon-fill-color-gradient-03-08);stroke-width:0.9248;stroke-miterlimit:10;}</style><linearGradient id="wdt-cus-icon-fill-color-gradient-03-01" gradientUnits="userSpaceOnUse" x1="-0.4643" y1="69.0757" x2="69.5058" y2="45.4249" gradientTransform="matrix(1 0 0 -1 0 102)">	<stop offset="0" style="stop-color:var(--wdtPrimaryColor)"></stop>	<stop offset="1" style="stop-color:var(--wdtTertiaryColor)"></stop></linearGradient><path class="wdt-cus-text-fill-color-03-01" d="M50.1,99c27.1,0,49-21.9,49-49c0-27.1-21.9-49-49-49C23,1,1.1,22.9,1.1,50C1.1,77.1,23,99,50.1,99z "></path><linearGradient id="wdt-cus-icon-fill-color-gradient-03-02" gradientUnits="userSpaceOnUse" x1="47.391" y1="102.4476" x2="51.2245" y2="90.8983" gradientTransform="matrix(1 0 0 -1 0 102)">	<stop offset="0" style="stop-color:var(--wdtPrimaryColor)"></stop>	<stop offset="1" style="stop-color:var(--wdtTertiaryColor)"></stop></linearGradient><path class="wdt-cus-text-fill-color-03-02" d="M74.8,7.9c0,1.6-11,2.8-24.6,2.8c-13.6,0-24.6-1.3-24.6-2.8c0-1.6,11-2.8,24.6-2.8 C63.7,5,74.8,6.3,74.8,7.9z"></path><linearGradient id="wdt-cus-icon-fill-color-gradient-03-03" gradientUnits="userSpaceOnUse" x1="47.2917" y1="18.3307" x2="51.1173" y2="6.792" gradientTransform="matrix(1 0 0 -1 0 102)">	<stop offset="0" style="stop-color:var(--wdtPrimaryColor)"></stop>	<stop offset="1" style="stop-color:var(--wdtTertiaryColor)"></stop></linearGradient><path class="wdt-cus-text-fill-color-03-03" d="M74.7,92c0,1.6-11,2.8-24.6,2.8c-13.6,0-24.6-1.3-24.6-2.8c0-1.6,11-2.8,24.6-2.8 C63.6,89.2,74.7,90.5,74.7,92z"></path><linearGradient id="wdt-cus-icon-fill-color-gradient-03-04" gradientUnits="userSpaceOnUse" x1="44.9128" y1="97.418" x2="51.7397" y2="78.5817" gradientTransform="matrix(1 0 0 -1 0 102)">	<stop offset="0" style="stop-color:var(--wdtPrimaryColor)"></stop>	<stop offset="1" style="stop-color:var(--wdtTertiaryColor)"></stop></linearGradient><path class="wdt-cus-text-fill-color-03-04" d="M12.6,18.2c0-2.5,16.7-4.6,37.2-4.6c20.6,0,37.2,2,37.2,4.6s-16.7,4.6-37.2,4.6 C29.4,22.7,12.6,20.7,12.6,18.2z"></path><linearGradient id="wdt-cus-icon-fill-color-gradient-03-05" gradientUnits="userSpaceOnUse" x1="44.9514" y1="36.4471" x2="51.5746" y2="17.444" gradientTransform="matrix(1 0 0 -1 0 102)">	<stop offset="0" style="stop-color:var(--wdtPrimaryColor)"></stop>	<stop offset="1" style="stop-color:var(--wdtTertiaryColor)"></stop></linearGradient><path class="wdt-cus-text-fill-color-03-05" d="M11,79.3c0-2.5,17.3-4.6,38.7-4.6c21.4,0.1,38.7,2.1,38.7,4.6c0,2.5-17.3,4.6-38.7,4.6 C28.4,83.8,11,81.8,11,79.3z"></path><linearGradient id="wdt-cus-icon-fill-color-gradient-03-06" gradientUnits="userSpaceOnUse" x1="42.5481" y1="88.9087" x2="52.5008" y2="64.0834" gradientTransform="matrix(1 0 0 -1 0 102)">	<stop offset="0" style="stop-color:var(--wdtPrimaryColor)"></stop>	<stop offset="1" style="stop-color:var(--wdtTertiaryColor)"></stop></linearGradient><path class="wdt-cus-text-fill-color-03-06" d="M49.7,37.2c25.1,0,45.4-2.8,45.4-6.2c0-3.4-20.3-6.2-45.4-6.2c-25.1,0-45.4,2.8-45.4,6.2 C4.3,34.4,24.7,37.2,49.7,37.2z"></path><linearGradient id="wdt-cus-icon-fill-color-gradient-03-07" gradientUnits="userSpaceOnUse" x1="43.3015" y1="54.4022" x2="52.506" y2="30.0678" gradientTransform="matrix(1 0 0 -1 0 102)">	<stop offset="0" style="stop-color:var(--wdtPrimaryColor)"></stop>	<stop offset="1" style="stop-color:var(--wdtTertiaryColor)"></stop></linearGradient><path class="wdt-cus-text-fill-color-03-07" d="M3.5,65.2c0-3.3,20.8-5.9,46.5-5.9s46.5,2.7,46.5,5.9c0,3.3-20.8,5.9-46.5,5.9S3.5,68.6,3.5,65.2 z"></path><linearGradient id="wdt-cus-icon-fill-color-gradient-03-08" gradientUnits="userSpaceOnUse" x1="38.2701" y1="77.1089" x2="54.1484" y2="45.8574" gradientTransform="matrix(1 0 0 -1 0 102)">	<stop offset="0" style="stop-color:var(--wdtPrimaryColor)"></stop>	<stop offset="1" style="stop-color:var(--wdtTertiaryColor)"></stop></linearGradient><path class="wdt-cus-text-fill-color-03-08" d="M98.5,47.5c0,4.7-21.8,8.4-48.8,8.4c-26.9,0-48.8-3.7-48.8-8.4c0-4.7,21.8-8.4,48.8-8.4 C76.7,39.1,98.5,42.8,98.5,47.5z"></path></svg>