<svg xmlns="http://www.w3.org/2000/svg" viewBox="0 0 100 100"><path d="M82.57,14.71H81.21V13.36a4.05,4.05,0,0,0-4.07-4.07H71.71a4.06,4.06,0,0,0-4.07,4.07v1.35H62.21V13.36a4.05,4.05,0,0,0-4.07-4.07H22.86a4.05,4.05,0,0,0-4.07,4.07v1.35H17.43A5.43,5.43,0,0,0,12,20.14V71.71a5.43,5.43,0,0,0,5.43,5.43H40.5v4.07A6.79,6.79,0,0,1,33.71,88H31a1.36,1.36,0,1,0,0,2.71H69A1.36,1.36,0,1,0,69,88H66.29a6.79,6.79,0,0,1-6.79-6.79V77.14H82.57A5.43,5.43,0,0,0,88,71.71V20.14A5.43,5.43,0,0,0,82.57,14.71ZM70.36,13.36A1.36,1.36,0,0,1,71.71,12h5.43a1.36,1.36,0,0,1,1.36,1.36v4.07H70.36Zm0,6.78h2.71V45.93a1.36,1.36,0,0,0,2.72,0V20.14H78.5V50H70.36Zm7.16,32.57-3.09,5.43-3.1-5.43Zm-56-39.35A1.36,1.36,0,0,1,22.86,12h4.07v8.14a1.36,1.36,0,1,0,2.71,0V12h5.43V31a1.36,1.36,0,1,0,2.72,0V12h5.42V25.57a1.36,1.36,0,0,0,2.72,0V12h5.43v8.14a1.36,1.36,0,1,0,2.71,0V12h4.07a1.36,1.36,0,0,1,1.36,1.36V36.43h-38ZM20.14,39.14H60.86v5.43a2.73,2.73,0,0,1-2.72,2.72H22.86a2.73,2.73,0,0,1-2.72-2.72ZM45.93,50v6.79a1.36,1.36,0,0,1-1.36,1.35H36.43a1.36,1.36,0,0,1-1.36-1.35V50ZM59.64,88H40.36a9.44,9.44,0,0,0,2.85-6.79V77.14H56.79v4.07A9.44,9.44,0,0,0,59.64,88ZM85.29,71.71a2.73,2.73,0,0,1-2.72,2.72H17.43a2.73,2.73,0,0,1-2.72-2.72V66.29H85.29Zm0-8.14H14.71V20.14a2.73,2.73,0,0,1,2.72-2.71h1.36V36.81a2.66,2.66,0,0,0-1.36,2.33v5.43A5.43,5.43,0,0,0,22.86,50h9.5v6.79a4.07,4.07,0,0,0,4.07,4.07h8.14a4.07,4.07,0,0,0,4.07-4.07V50h9.5a5.43,5.43,0,0,0,5.43-5.43V39.14a2.66,2.66,0,0,0-1.36-2.33V17.43h5.43V51.37a1.14,1.14,0,0,0,.11.49l0,0a1.09,1.09,0,0,1,0,.14l4.25,7.44a2.74,2.74,0,0,0,4.72,0L81,52s0-.09,0-.14l0,0a1.63,1.63,0,0,0,.09-.49V17.43h1.36a2.73,2.73,0,0,1,2.72,2.71Z"></path><path d="M54.07,70.36a1.36,1.36,0,0,1-1.36,1.35H47.29a1.36,1.36,0,1,1,0-2.71h5.42A1.36,1.36,0,0,1,54.07,70.36Z"></path></svg>