<svg xmlns="http://www.w3.org/2000/svg" xmlns:xlink="http://www.w3.org/1999/xlink" x="0px" y="0px" viewBox="0 0 100 100" style="enable-background:new 0 0 100 100;" xml:space="preserve"><style type="text/css">	.wdt-cus-text-fill-color-04{fill:none;stroke:url(#wdt-cus-test-fill-color-gradient-04-01);stroke-width:0.9248;stroke-miterlimit:10;}</style><linearGradient id="wdt-cus-test-fill-color-gradient-04-01" gradientUnits="userSpaceOnUse" x1="-0.7072" y1="69.12" x2="69.5168" y2="45.3833" gradientTransform="matrix(1 0 0 -1 0 102)">	<stop offset="0" style="stop-color:var(--wdtPrimaryColor)"></stop>	<stop offset="1" style="stop-color:var(--wdtTertiaryColor)"></stop></linearGradient><path class="wdt-cus-text-fill-color-04" d="M99,50c0,1.6-25.5,1.5-25.8,3c-0.2,1.6,24.5,8.1,24.2,9.6c-0.5,1.5-25.1-5.2-25.7-3.7 c-0.6,1.5,21.6,14.2,20.8,15.6C91.7,75.9,69.6,63,68.7,64.3c-1.2,1.2,17.1,19.2,15.9,20.3c-1.2,1.2-19.2-17.1-20.4-16 c-1.3,0.9,11.6,23.1,10.2,23.8C73,93.2,60.3,71,58.8,71.6c-1.4,0.6,5.2,25.3,3.7,25.7c-1.5,0.3-8-24.4-9.6-24.2 C51.5,73.3,51.5,99,50,99c-1.6,0-1.5-25.5-3-25.8c-1.6-0.2-8.1,24.5-9.6,24.2c-1.5-0.5,5.2-25.1,3.7-25.7 c-1.5-0.6-14.2,21.6-15.6,20.8C24.1,91.7,37,69.6,35.7,68.7c-1.3-0.9-19.3,17.2-20.4,16c-1.2-1.2,17.1-19.2,16-20.4 C30.4,63,8.2,75.9,7.5,74.5c-0.8-1.4,21.4-14.2,20.8-15.6C27.7,57.5,3,64.2,2.6,62.7c-0.3-1.5,24.4-8,24.2-9.6 C26.5,51.5,1,51.5,1,50c0-1.6,25.5-1.5,25.8-3c0.2-1.6-24.5-8.1-24.2-9.6c0.5-1.5,25.1,5.2,25.7,3.7c0.6-1.5-21.6-14.2-20.8-15.6 C8.3,24.1,30.4,37,31.3,35.7c0.9-1.3-17.2-19.3-16-20.4c1.2-1.2,19.2,17.1,20.4,16C37,30.4,24.1,8.2,25.5,7.5 c1.3-0.8,14,21.4,15.4,20.8S35.7,3,37.2,2.6c1.5-0.3,8,24.4,9.6,24.2c1.5-0.2,1.5-25.8,3-25.8c1.6,0,1.5,25.5,3,25.8 C54.5,27,61,2.3,62.5,2.6c1.5,0.5-5.2,25.1-3.7,25.7C60.3,28.9,73,6.7,74.4,7.5c1.4,0.8-11.5,22.9-10.2,23.8 c1.3,0.9,19.3-17.2,20.4-16c1.2,1.2-17.1,19.2-16,20.4c0.9,1.3,23.1-11.6,23.8-10.2c0.8,1.4-21.4,14-20.8,15.6 c0.6,1.4,25.3-5.2,25.7-3.7c0.3,1.5-24.4,8-24.2,9.6C73.3,48.5,99,48.4,99,50z"></path></svg>