<svg xmlns="http://www.w3.org/2000/svg" xmlns:xlink="http://www.w3.org/1999/xlink" x="0px" y="0px" viewBox="0 0 100 100" style="enable-background:new 0 0 100 100;" xml:space="preserve"><style type="text/css">	.wdt-cus-icon-text-fill-color{fill:none;stroke:url(#wdt-cus-text-fill-color-gradient);stroke-width:0.9248;stroke-linecap:round;stroke-linejoin:round;stroke-miterlimit:10;}</style><linearGradient id="wdt-cus-text-fill-color-gradient" gradientUnits="userSpaceOnUse" x1="-0.5621" y1="68.7109" x2="69.2124" y2="44.8075" gradientTransform="matrix(1 0 0 -1 0 102)">	<stop offset="0" style="stop-color:var(--wdtPrimaryColor)"></stop>	<stop offset="1" style="stop-color:var(--wdtTertiaryColor)"></stop></linearGradient><path class="wdt-cus-icon-text-fill-color" d="M50.8,1.7c3.9,0.9,7.9,0.8,11.5,2.1c15.3,5,28.4,16.6,33.9,31.4c6.6,19,1.1,39-14.3,51.7 c-20.9,16.8-53.8,15.8-71.4-6.4C-3.7,61.4-2.7,34,18.2,19.2C32.5,8.7,51.1,7.6,66.5,16.1c13.2,8.4,21,22.1,19.8,38 C85.3,71.9,71,84.7,53.4,88.9C34.7,92,18.2,81.4,10.6,65.7c-7.7-17.9,3.3-39,24.2-42.2c13.1-2.1,25.3,6.4,30.7,17.9 C71,55,66.5,71.9,53.4,77.2c-6.6,3.1-14.3,3.1-21.8,0.4"></path></svg>