<svg xmlns="http://www.w3.org/2000/svg" viewBox="0 0 100 100"><path d="M97.34,41.89a14.29,14.29,0,0,0-9.93-10.72,5.32,5.32,0,0,0-5.23,1.07C77,36.84,74,48.07,75.31,53.69a3.73,3.73,0,0,0,2.89,2.84,24.68,24.68,0,0,0,4.61.46.13.13,0,0,1,.08,0s0,0,.07,0a.1.1,0,0,1,0,.08v.08c-1.44,5-4.75,10.25-9.54,15.3s-10,8.52-14.91,10.15h-.09a.12.12,0,0,1-.08,0,.12.12,0,0,1-.06-.06.13.13,0,0,1,0-.08,25.94,25.94,0,0,0-.64-4.62,3.75,3.75,0,0,0-1.08-1.8,3.68,3.68,0,0,0-1.87-1c-5.68-1-16.77,2.38-21.17,7.73a5.39,5.39,0,0,0-.87,5.25,14.38,14.38,0,0,0,11.12,9.51,21.71,21.71,0,0,0,4.54.46c10.44,0,23.39-6.53,33.7-17.32C94,68.41,100.11,52.79,97.34,41.89ZM80.18,79C68.9,90.81,54.48,97.3,44.31,95.14a11.93,11.93,0,0,1-9.25-7.9,2.79,2.79,0,0,1,.44-2.76c3.52-4.28,12-7,17-7a10,10,0,0,1,1.73.14,1.15,1.15,0,0,1,.59.3,1.18,1.18,0,0,1,.34.55,22.08,22.08,0,0,1,.57,4.13,3,3,0,0,0,.35,1.2,2.93,2.93,0,0,0,.83.92,2.76,2.76,0,0,0,1.17.46,2.66,2.66,0,0,0,1.25-.11c5.28-1.76,10.79-5.5,16-10.8s8.6-11,10.15-16.38a2.48,2.48,0,0,0,0-1.24,2.79,2.79,0,0,0-.5-1.14,2.82,2.82,0,0,0-1-.8,2.89,2.89,0,0,0-1.22-.3A21.72,21.72,0,0,1,78.71,54a1.09,1.09,0,0,1-.59-.31,1.22,1.22,0,0,1-.32-.59c-1-4.35,1.4-14.81,6.07-19a2.81,2.81,0,0,1,1.3-.65,2.9,2.9,0,0,1,1.46.09,11.93,11.93,0,0,1,8.24,8.92,20.31,20.31,0,0,1,.6,5C95.47,57.08,89.77,69.08,80.18,79Z"></path><path d="M42.75,60.4a1.27,1.27,0,0,1-1.27,1.27H24.09A1.93,1.93,0,0,1,22.3,60.5a1.93,1.93,0,0,1-.15-1.11,2,2,0,0,1,.48-1l.7-.77c5.4-5.94,11-12.07,14.35-16.55a7.22,7.22,0,0,0,.78-7.54,7,7,0,0,0-6-4.1H32a8.21,8.21,0,0,0-8.2,8.2,1.28,1.28,0,1,1-2.55,0A10.75,10.75,0,0,1,32,26.86h.55a9.5,9.5,0,0,1,8.22,5.57A9.92,9.92,0,0,1,39.72,42.6c-3.41,4.52-8.94,10.61-14.31,16.52H41.48A1.27,1.27,0,0,1,42.75,60.4Z"></path><path d="M67.51,48.86H65.05V28.58a1.42,1.42,0,0,0-.25-.83,1.5,1.5,0,0,0-.71-.53,1.38,1.38,0,0,0-.85,0,1.4,1.4,0,0,0-.73.48L45.35,49.06a1.35,1.35,0,0,0-.32.74,1.44,1.44,0,0,0,.13.79,1.4,1.4,0,0,0,.53.6,1.33,1.33,0,0,0,.76.22H62.51v9a1.27,1.27,0,1,0,2.54,0v-9h2.46a1.28,1.28,0,0,0,0-2.55Zm-5,0H48.78L62.51,31.75Z"></path><path d="M82.89,27.3a1.28,1.28,0,0,1-1.71-.56c-.25-.48-.5-1-.78-1.44l-3.22,1.88a1.36,1.36,0,0,1-.64.17A1.27,1.27,0,0,1,75.9,25l3.2-1.85A40.4,40.4,0,0,0,66.22,10.51L66,10.37l-1.72,3a1.29,1.29,0,0,1-1.11.63,1.22,1.22,0,0,1-.63-.17A1.27,1.27,0,0,1,62,12.1l1.72-3A40.48,40.48,0,0,0,46.23,4.58V7.89a1.28,1.28,0,0,1-2.55,0V4.58a40.52,40.52,0,0,0-17.6,4.6l1.71,3a1.27,1.27,0,0,1-2.2,1.28l-1.73-3A40.53,40.53,0,0,0,10.75,23.21L14,25.06a1.26,1.26,0,0,1,.47,1.74,1.27,1.27,0,0,1-1.1.64,1.23,1.23,0,0,1-.64-.17L9.45,25.4A39,39,0,0,0,4.58,43.16H8.44a1.28,1.28,0,1,1,0,2.55H4.58a39.4,39.4,0,0,0,4.9,17.75l3.24-1.87a1.27,1.27,0,0,1,1.74.46A1.29,1.29,0,0,1,14,63.8l-3.21,1.86.28.44A39.56,39.56,0,0,0,23.89,78.43l1.75-3A1.26,1.26,0,0,1,27.38,75a1.28,1.28,0,0,1,.47,1.73l-1.73,3c.72.38,1.46.73,2.22,1.06a1.28,1.28,0,0,1-.51,2.45,1.19,1.19,0,0,1-.52-.11A42.42,42.42,0,0,1,2,44.41C2,21,21.27,2,45,2h.14A43,43,0,0,1,83.45,25.58,1.27,1.27,0,0,1,82.89,27.3Z"></path></svg>