<svg xmlns="http://www.w3.org/2000/svg" xmlns:xlink="http://www.w3.org/1999/xlink" x="0px" y="0px" viewBox="0 0 100 110" style="enable-background:new 0 0 100 110;" xml:space="preserve"><style type="text/css">	.pulb-svg-class{fill:url(#pulb-svg);}</style><g>	<g>					<linearGradient id="pulb-svg" gradientUnits="userSpaceOnUse" x1="50" y1="108.6151" x2="50" y2="1.3849" gradientTransform="matrix(1 0 0 -1 0 110)">			<stop offset="0" style="stop-color:#F48368"></stop>			<stop offset="1" style="stop-color:#FFD72F"></stop>		</linearGradient>		<path class="pulb-svg-class" d="M49.8,110c-1.6,0-3.3-0.4-4.8-1.1c-1.6-0.7-3-1.8-4.1-3.2c-0.4-0.5-0.4-1.2,0-1.7l-3.2,0.8   c-0.7,0.2-1.5-0.2-1.7-1c-0.2-0.7,0.2-1.5,1-1.7l26.9-7c0.7-0.2,1.5,0.2,1.7,1c0.2,0.7-0.2,1.5-1,1.7L60.2,99   c0.5,0.2,0.8,0.7,0.8,1.3c0,5.4-4.9,9.7-11,9.7C49.9,110,49.9,110,49.8,110z M42.6,103.6c0.2,0.1,0.4,0.2,0.5,0.4   c0.8,1,1.9,1.9,3.1,2.4c1.2,0.6,2.5,0.8,3.8,0.8c4.6,0,8.2-3.1,8.2-6.9c0-0.3,0.1-0.6,0.3-0.8L42.6,103.6z M37.4,94.8   c-0.6,0-1.2-0.4-1.3-1c-0.2-0.7,0.2-1.5,1-1.7l26.9-7c0.7-0.2,1.5,0.2,1.7,1c0.2,0.7-0.2,1.5-1,1.7l-26.9,7   C37.6,94.8,37.5,94.8,37.4,94.8z M37.4,84.7c-0.6,0-1.2-0.4-1.3-1c0-0.2-0.1-0.4,0-0.5c-0.3-0.2-0.4-0.6-0.5-0.9   c-0.5-7.7-3.4-9.9-6.8-12.5c-4.2-3.3-9-7-9.9-20.7c-0.5-7,2.1-13.9,7.2-19.3c6.1-6.4,14.8-10.1,24-10.1c9.1,0,18.1,3.8,24.1,10.2   c5.1,5.4,7.6,12.3,7.1,19.2c-1,13.4-5.6,17-9.7,20.3c-2.4,1.9-4.5,3.6-5.9,7.2c0,0.5-0.3,0.9-0.7,1.1c-0.2,0.1-0.4,0.2-0.6,0.2   l-26.6,7C37.6,84.7,37.5,84.7,37.4,84.7z M50,22.3c-8.4,0-16.5,3.4-22,9.3c-4.6,4.9-6.9,11-6.5,17.2c0.8,12.5,4.9,15.7,8.9,18.7   c3.5,2.7,7.2,5.5,7.8,14.2l24.9-6.5c1.6-4.1,4.2-6.1,6.7-8.1c3.8-3,7.8-6.2,8.7-18.3c0.4-6.2-1.8-12.3-6.4-17.1   C66.6,25.8,58.4,22.3,50,22.3z M82.4,83.9c-0.4,0-0.7-0.1-1-0.4L75,77.1c-0.5-0.5-0.5-1.4,0-2c0.5-0.5,1.4-0.5,2,0l6.4,6.4   c0.5,0.5,0.5,1.4,0,2C83.1,83.7,82.8,83.9,82.4,83.9z M16.3,83.9c-0.4,0-0.7-0.1-1-0.4c-0.5-0.5-0.5-1.4,0-2l6.4-6.4   c0.5-0.5,1.4-0.5,2,0c0.5,0.5,0.5,1.4,0,2l-6.4,6.4C17,83.7,16.6,83.9,16.3,83.9z M45.3,63.9c-0.4,0-0.8-0.2-1-0.5l-8.7-9.8   c-0.5-0.6-0.5-1.4,0.1-2c0.6-0.5,1.5-0.5,2,0.1l7.7,8.6l18.3-20.7c0.5-0.6,1.4-0.6,2-0.1c0.6,0.5,0.6,1.4,0.1,2L46.4,63.4   C46.1,63.7,45.7,63.9,45.3,63.9C45.3,63.9,45.3,63.9,45.3,63.9z M98.6,50.3h-9c-0.8,0-1.4-0.6-1.4-1.4c0-0.8,0.6-1.4,1.4-1.4h9   c0.8,0,1.4,0.6,1.4,1.4C100,49.7,99.4,50.3,98.6,50.3z M10.4,48.4h-9c-0.8,0-1.4-0.6-1.4-1.4s0.6-1.4,1.4-1.4h9   c0.8,0,1.4,0.6,1.4,1.4S11.2,48.4,10.4,48.4z M77.3,21.6c-0.4,0-0.7-0.1-1-0.4c-0.5-0.5-0.5-1.4,0-2l6.4-6.4c0.5-0.5,1.4-0.5,2,0   c0.5,0.5,0.5,1.4,0,2l-6.4,6.4C78,21.4,77.7,21.6,77.3,21.6z M24,21.6c-0.4,0-0.7-0.1-1-0.4l-6.4-6.4c-0.5-0.5-0.5-1.4,0-2   c0.5-0.5,1.4-0.5,2,0l6.4,6.4c0.5,0.5,0.5,1.4,0,2C24.7,21.4,24.3,21.6,24,21.6z M50.9,11.8c-0.8,0-1.4-0.6-1.4-1.4v-9   c0-0.8,0.6-1.4,1.4-1.4c0.8,0,1.4,0.6,1.4,1.4v9C52.3,11.2,51.7,11.8,50.9,11.8z"></path>	</g></g></svg>