<svg xmlns="http://www.w3.org/2000/svg" viewBox="0 0 100 100"><path d="M50.13,21.45A21.78,21.78,0,0,0,28.38,43.2a30.53,30.53,0,0,0,5.88,17.15,17.67,17.67,0,0,1,3.5,10.39v4.35H62.4V70.9a17.7,17.7,0,0,1,3.53-10.45,30.56,30.56,0,0,0,6-17.25A21.79,21.79,0,0,0,50.13,21.45ZM63,58.32A21.19,21.19,0,0,0,58.79,70.9v.58H41.37v-.74a21.29,21.29,0,0,0-4.18-12.51A26.84,26.84,0,0,1,32,43.2a18.14,18.14,0,0,1,36.27,0A26.87,26.87,0,0,1,63,58.32Z"></path><path d="M60.29,81.07,40.43,84.26a1.43,1.43,0,0,1-.29,0,1.81,1.81,0,0,1-.29-3.59l19.86-3.2a1.81,1.81,0,1,1,.58,3.57Z"></path><path d="M60.29,87.79,40.43,91l-.29,0a1.81,1.81,0,0,1-.29-3.59l19.86-3.18a1.8,1.8,0,1,1,.58,3.56Z"></path><path d="M56.5,93.27A5.74,5.74,0,0,1,50.76,99H48.23a5.74,5.74,0,0,1-5.74-5.72,1.81,1.81,0,1,1,3.62,0,2.12,2.12,0,0,0,2.12,2.1h2.53a2.11,2.11,0,0,0,2.12-2.1,1.81,1.81,0,1,1,3.62,0Z"></path><path d="M22,44.06a1.81,1.81,0,0,1-1.81,1.81H8.75a1.81,1.81,0,0,1,0-3.62H20.17A1.81,1.81,0,0,1,22,44.06Z"></path><path d="M93.06,44.06a1.81,1.81,0,0,1-1.81,1.81H79.83a1.81,1.81,0,0,1,0-3.62H91.25A1.81,1.81,0,0,1,93.06,44.06Z"></path><path d="M30.19,24.25a1.81,1.81,0,0,1-2.56,0l-8.07-8.08a1.8,1.8,0,0,1,2.55-2.55l8.08,8.07A1.8,1.8,0,0,1,30.19,24.25Z"></path><path d="M80.44,16.17l-8.07,8.08a1.81,1.81,0,0,1-2.56-2.56l8.08-8.07a1.8,1.8,0,0,1,2.55,2.55Z"></path><path d="M51.81,2.81V14.23a1.81,1.81,0,0,1-3.62,0V2.81a1.81,1.81,0,0,1,3.62,0Z"></path></svg>