<svg xmlns="http://www.w3.org/2000/svg" viewBox="0 0 100 100"><path d="M68.36,68.62a8.91,8.91,0,1,0,8.91,8.91A8.92,8.92,0,0,0,68.36,68.62Zm0,15.09a6.18,6.18,0,1,1,6.18-6.17A6.18,6.18,0,0,1,68.36,83.71Z"></path><path d="M89.31,17.49a6.62,6.62,0,0,0-2.41-9,6.61,6.61,0,0,0-9,2.41l-2.13,3.7V10.72a1.37,1.37,0,0,0-1.37-1.37H70.74V5.71a1.37,1.37,0,0,0-1.37-1.37H25.49a1.36,1.36,0,0,0-1,.41l-14,14a1.35,1.35,0,0,0-.4,1V78.92a1.36,1.36,0,0,0,1.36,1.36h3.64v3.65a1.36,1.36,0,0,0,1.37,1.36H54.25l-.64.64a2.44,2.44,0,0,0,0,3.45l2.91,2.91a2.45,2.45,0,0,0,3.45,0l1.37-1.38A1.47,1.47,0,0,1,63,90.59,1.44,1.44,0,0,1,63.87,92v2a2.43,2.43,0,0,0,2.43,2.43h4.13a2.43,2.43,0,0,0,2.43-2.43V92a1.44,1.44,0,0,1,.91-1.37,1.47,1.47,0,0,1,1.62.32l1.37,1.38a2.44,2.44,0,0,0,3.44,0l2.92-2.92a2.43,2.43,0,0,0,0-3.44l-1.38-1.37a1.47,1.47,0,0,1-.32-1.62A1.44,1.44,0,0,1,82.79,82h1.95a2.43,2.43,0,0,0,2.43-2.43V75.47A2.43,2.43,0,0,0,84.74,73H82.79a1.44,1.44,0,0,1-1.37-.92,1.46,1.46,0,0,1,.32-1.61l1.38-1.37a2.44,2.44,0,0,0,0-3.45L80.2,62.78a2.44,2.44,0,0,0-3.44,0l-1,1V41Zm-9.06-5.23a3.86,3.86,0,1,1,6.69,3.86l-.66,1.15-6.69-3.86Zm-9.51-.18H73v7.25l-2.27,3.94Zm7.48,3.7L80.38,17,65.16,43.4,63,42.15Zm-10.9,32-4.43,2.25-.26-5ZM24.12,9v9.31H14.81ZM12.88,77.55V21.05H25.49a1.36,1.36,0,0,0,1.36-1.36V7.08H68V28l-5.68,9.84a1.35,1.35,0,0,0-.69-.19H40a1.37,1.37,0,0,0,0,2.73H60.86L59.94,42a1.41,1.41,0,0,0-.18.75l.09,1.53h-28a1.37,1.37,0,1,0,0,2.74H60l.21,3.87H40a1.37,1.37,0,0,0,0,2.73H61.64a1.38,1.38,0,0,0,.62-.15L68,50.52v8.21H66.3a2.43,2.43,0,0,0-2.43,2.43v2a1.48,1.48,0,0,1-2.53,1L60,62.78a2.44,2.44,0,0,0-3.44,0l-1.29,1.29H40a1.37,1.37,0,0,0,0,2.73H53a2.44,2.44,0,0,0,.63,2.34L55,70.51a2.09,2.09,0,0,1,.14.17H31.87a1.37,1.37,0,1,0,0,2.73H50.71a2.42,2.42,0,0,0-1.15,2.06v2.08Zm5,5V80.29H49.66A2.44,2.44,0,0,0,52,82h1.95a1.44,1.44,0,0,1,1.14.53ZM77.32,66.08l1.16-1.16L81,67.41l-1.17,1.17a4.21,4.21,0,0,0,3,7.19h1.65V79.3H82.79a4.21,4.21,0,0,0-3,7.19L81,87.65l-2.5,2.5L77.32,89a4.21,4.21,0,0,0-7.19,3v1.65H66.6V92a4.21,4.21,0,0,0-7.19-3l-1.17,1.17-2.49-2.5,1.16-1.16a4.21,4.21,0,0,0-3-7.19H52.29V75.77h1.65a4.21,4.21,0,0,0,3-7.19l-1.17-1.16,2.49-2.5,1.17,1.17a4.21,4.21,0,0,0,7.19-3V61.46h3.53v1.65a4.21,4.21,0,0,0,7.19,3Zm-6.58-7.33V49.13l.06,0a1.35,1.35,0,0,0,.57-.54L73,45.71V63.78a1.5,1.5,0,0,1-.15-.67v-2A2.45,2.45,0,0,0,70.74,58.75ZM69.69,46l-2.17-1.25L82.75,18.39l2.16,1.25Z"></path><path d="M63,58.83a1.37,1.37,0,0,1-1.36,1.37H31.87a1.37,1.37,0,1,1,0-2.74H61.64A1.37,1.37,0,0,1,63,58.83Z"></path><path d="M28.55,66.55l-5.28,6.16a1.4,1.4,0,0,1-1,.48h0a1.37,1.37,0,0,1-1-.46l-3-3.32a1.36,1.36,0,0,1,2-1.82l1.94,2.16,4.27-5a1.37,1.37,0,1,1,2.08,1.78Z"></path><path d="M28.55,53.33,23.27,59.5a1.39,1.39,0,0,1-1,.47h0a1.36,1.36,0,0,1-1-.45l-3-3.32a1.36,1.36,0,1,1,2-1.82l1.94,2.16,4.27-5a1.37,1.37,0,0,1,2.08,1.77Z"></path><path d="M28.55,40.12l-5.28,6.16a1.36,1.36,0,0,1-1,.48h0a1.36,1.36,0,0,1-1-.45l-3-3.32a1.36,1.36,0,1,1,2-1.82l1.94,2.15,4.27-5a1.37,1.37,0,0,1,2.08,1.77Z"></path><path d="M28.55,26.91l-5.28,6.16a1.36,1.36,0,0,1-1,.48h0a1.36,1.36,0,0,1-1-.45l-3-3.32a1.37,1.37,0,0,1,2-1.83l1.94,2.16,4.27-5a1.37,1.37,0,0,1,2.08,1.78Z"></path><path d="M63,12.59A1.37,1.37,0,0,1,61.64,14H45.44a1.37,1.37,0,1,1,0-2.74h16.2A1.37,1.37,0,0,1,63,12.59Z"></path><path d="M63,19.2a1.36,1.36,0,0,1-1.36,1.36H36.71a1.37,1.37,0,1,1,0-2.73H61.64A1.36,1.36,0,0,1,63,19.2Z"></path><path d="M63,25.8a1.36,1.36,0,0,1-1.36,1.37H40a1.37,1.37,0,0,1,0-2.73H61.64A1.36,1.36,0,0,1,63,25.8Z"></path><path d="M63,32.41a1.36,1.36,0,0,1-1.36,1.36H31.87a1.37,1.37,0,1,1,0-2.73H61.64A1.36,1.36,0,0,1,63,32.41Z"></path></svg>