<svg xmlns="http://www.w3.org/2000/svg" viewBox="0 0 100 100"><path d="M50,7A20.76,20.76,0,1,0,70.76,27.76,20.77,20.77,0,0,0,50,7Zm0,38.55A17.79,17.79,0,1,1,67.79,27.76,17.8,17.8,0,0,1,50,45.55Z"></path><path d="M75.21,62.17V55.93a4.45,4.45,0,0,0-4.45-4.45H29.24a4.45,4.45,0,0,0-4.45,4.45v6.24A41.5,41.5,0,0,0,12.93,91.52,1.49,1.49,0,0,0,14.41,93H85.59a1.49,1.49,0,0,0,1.48-1.48A41.46,41.46,0,0,0,75.21,62.17ZM24.79,90H15.93a38.6,38.6,0,0,1,8.86-23.47Zm47.45,0H27.76V55.93a1.49,1.49,0,0,1,1.48-1.48H70.76a1.49,1.49,0,0,1,1.48,1.48Zm3,0V66.56A38.6,38.6,0,0,1,84.07,90Z"></path><path d="M42.33,80.31A1.48,1.48,0,1,1,39.87,82l-5.93-8.9a1.48,1.48,0,0,1,0-1.66l5.93-8.9a1.49,1.49,0,1,1,2.46,1.67L37,72.24Z"></path><path d="M54.37,63.82,48.44,81.61a1.48,1.48,0,1,1-2.81-1l5.93-17.79a1.48,1.48,0,1,1,2.81,1Z"></path><path d="M66.06,73.07,60.13,82a1.48,1.48,0,0,1-2.46-1.66l5.38-8.07-5.38-8.06a1.49,1.49,0,1,1,2.46-1.67l5.93,8.9A1.48,1.48,0,0,1,66.06,73.07Z"></path></svg>